<svg id="svg" version="1.1" xmlns="http://www.w3.org/2000/svg" xmlns:xlink="http://www.w3.org/1999/xlink" width="400" height="400" viewBox="0, 0, 400,400"><g id="svgg"><path id="path0" d="M0.000 200.000 L 0.000 400.000 200.000 400.000 L 400.000 400.000 400.000 200.000 L 400.000 0.000 200.000 0.000 L 0.000 0.000 0.000 200.000 M211.200 8.002 C 218.180 8.391,225.113 9.165,230.800 10.188 C 232.450 10.485,234.520 10.842,235.400 10.982 C 237.618 11.333,241.899 12.311,246.400 13.493 C 248.490 14.043,250.740 14.628,251.400 14.793 C 253.577 15.339,265.024 19.072,266.200 19.620 C 266.640 19.825,268.215 20.442,269.700 20.993 C 271.185 21.543,272.715 22.158,273.100 22.359 C 273.485 22.560,274.970 23.216,276.400 23.816 C 290.144 29.588,311.651 42.952,321.800 52.026 C 322.460 52.616,324.620 54.541,326.600 56.303 C 332.901 61.910,340.305 69.428,339.913 69.820 C 339.782 69.951,338.894 69.554,337.938 68.939 C 335.871 67.608,335.438 67.365,331.800 65.491 C 328.025 63.546,325.923 62.660,322.600 61.611 C 321.060 61.124,319.426 60.581,318.968 60.403 C 308.802 56.447,283.923 55.207,267.000 57.813 C 262.652 58.482,254.683 59.908,253.400 60.247 C 252.960 60.363,251.520 60.692,250.200 60.978 C 247.217 61.625,238.548 63.888,237.200 64.371 C 236.650 64.569,233.770 65.491,230.800 66.420 C 227.830 67.350,225.229 68.266,225.020 68.455 C 224.811 68.645,224.412 68.800,224.132 68.800 C 223.625 68.800,213.324 72.719,210.940 73.819 C 210.246 74.138,209.587 74.400,209.475 74.400 C 209.363 74.400,207.860 75.050,206.136 75.843 C 204.411 76.637,202.010 77.741,200.800 78.296 C 193.159 81.801,175.873 90.806,176.186 91.119 C 176.268 91.201,178.375 90.285,180.868 89.084 C 189.022 85.153,198.232 81.184,201.200 80.323 C 201.970 80.100,202.780 79.780,203.000 79.612 C 203.324 79.366,213.884 75.927,219.000 74.401 C 222.007 73.504,229.350 71.827,236.400 70.426 C 255.485 66.633,280.733 68.293,293.799 74.200 C 294.460 74.498,295.866 75.125,296.923 75.592 C 306.609 79.870,316.044 88.540,320.918 97.642 C 331.862 118.079,329.241 146.800,313.655 177.200 C 307.962 188.304,298.836 202.251,291.146 211.600 C 277.750 227.884,264.535 241.001,249.408 253.027 C 247.213 254.772,245.143 256.420,244.808 256.690 C 238.969 261.393,228.426 268.587,219.400 274.030 C 216.760 275.621,214.150 277.208,213.600 277.555 C 213.050 277.902,212.240 278.383,211.800 278.624 C 198.530 285.884,190.402 289.782,180.200 293.778 C 177.560 294.813,174.972 295.832,174.448 296.044 C 171.996 297.038,163.790 299.645,160.767 300.390 C 158.915 300.847,156.770 301.384,156.000 301.583 C 135.460 306.910,111.174 303.383,101.275 293.637 C 92.669 285.164,89.506 269.206,93.017 251.980 C 93.876 247.765,97.765 235.166,99.369 231.400 C 99.651 230.740,100.292 229.120,100.795 227.800 C 101.298 226.480,101.940 224.860,102.222 224.200 C 107.639 211.516,109.276 207.793,111.324 203.500 L 113.757 198.400 122.414 198.400 C 127.176 198.400,134.595 198.282,138.902 198.138 L 146.732 197.875 148.166 194.937 C 148.955 193.320,149.600 191.922,149.600 191.830 C 149.600 191.738,150.221 190.343,150.979 188.731 L 152.358 185.800 136.179 185.696 C 125.184 185.625,120.000 185.456,120.000 185.170 C 120.000 184.938,120.431 183.815,120.958 182.674 C 123.740 176.651,125.326 173.246,129.007 165.400 C 129.730 163.860,130.857 161.430,131.513 160.000 C 132.170 158.570,133.464 155.780,134.389 153.800 C 135.315 151.820,136.785 148.670,137.656 146.800 C 138.527 144.930,139.400 143.104,139.596 142.743 C 140.185 141.659,139.775 141.600,131.716 141.600 L 123.966 141.600 121.894 143.500 C 117.732 147.315,116.543 148.364,113.600 150.814 C 106.490 156.733,98.821 162.132,90.786 166.877 C 82.736 171.630,77.227 174.345,65.800 179.191 C 61.330 181.086,50.222 184.786,44.946 186.137 C 43.438 186.523,43.197 186.773,42.199 188.980 C 41.598 190.311,40.569 192.570,39.912 194.000 C 39.255 195.430,38.561 197.005,38.369 197.500 L 38.020 198.400 48.986 198.400 C 55.140 198.400,60.051 198.560,60.178 198.764 C 60.419 199.155,59.405 201.607,57.930 204.200 C 57.429 205.080,56.196 207.240,55.188 209.000 C 52.779 213.208,48.501 221.993,46.421 227.000 C 45.508 229.200,44.592 231.360,44.388 231.800 C 43.797 233.068,41.562 239.223,40.974 241.200 C 36.710 255.534,35.408 262.676,34.958 274.200 C 34.584 283.786,35.709 292.627,38.282 300.314 C 39.659 304.425,39.270 304.619,36.980 300.963 C 34.530 297.055,34.108 296.357,33.737 295.600 C 33.575 295.270,32.598 293.535,31.565 291.744 C 28.981 287.264,24.179 277.353,22.193 272.400 C 21.619 270.970,20.904 269.260,20.604 268.600 C 19.917 267.090,15.378 253.549,14.839 251.400 C 14.618 250.520,14.066 248.360,13.613 246.600 C 11.207 237.262,9.502 227.387,8.329 216.000 C 7.763 210.502,7.772 187.373,8.342 182.000 C 9.358 172.443,10.103 167.592,12.018 158.076 C 12.650 154.931,14.694 147.109,15.748 143.800 C 17.741 137.541,18.496 135.329,20.169 130.858 C 37.856 83.570,75.845 43.820,122.907 23.356 C 126.258 21.899,129.450 20.557,130.000 20.373 C 130.550 20.190,132.260 19.571,133.800 18.999 C 157.464 10.197,183.707 6.468,211.200 8.002 M365.297 104.100 C 369.966 112.235,373.971 120.609,377.460 129.531 C 379.464 134.655,383.600 146.986,383.600 147.837 C 383.600 148.131,383.846 149.143,384.147 150.086 C 384.628 151.593,385.079 153.466,386.826 161.230 C 387.785 165.490,389.181 175.614,389.994 184.200 C 390.480 189.327,390.484 209.044,390.001 214.000 C 389.159 222.637,388.788 225.913,388.414 228.000 C 387.163 234.997,385.897 241.555,385.595 242.600 C 385.405 243.260,384.869 245.330,384.405 247.200 C 377.006 276.987,361.162 305.830,339.150 329.583 C 334.044 335.093,329.660 339.320,323.166 344.994 C 307.986 358.257,283.184 372.756,265.250 378.852 C 263.352 379.497,261.440 380.186,261.000 380.383 C 259.636 380.994,251.174 383.523,247.600 384.388 C 245.730 384.841,243.660 385.374,243.000 385.573 C 241.962 385.885,238.948 386.473,228.400 388.420 C 227.190 388.643,224.490 389.006,222.400 389.226 C 220.310 389.446,216.980 389.796,215.000 390.002 C 210.337 390.489,187.663 390.489,183.000 390.002 C 171.379 388.789,170.483 388.659,160.713 386.750 C 142.354 383.163,123.667 376.235,106.000 366.467 C 101.286 363.861,101.872 364.220,94.290 359.284 C 83.118 352.010,74.095 344.715,64.400 335.122 C 59.175 329.951,58.872 329.251,63.032 331.954 C 81.837 344.173,112.014 347.161,146.000 340.168 C 162.286 336.818,182.552 329.926,199.400 322.009 C 206.973 318.450,218.344 312.649,219.800 311.600 C 220.020 311.442,221.640 310.541,223.400 309.599 C 225.160 308.657,227.374 307.372,228.320 306.743 C 229.266 306.114,230.103 305.600,230.180 305.600 C 230.389 305.600,238.822 300.286,243.400 297.270 C 251.445 291.969,261.458 284.655,268.200 279.153 C 274.448 274.056,278.611 270.604,278.800 270.366 C 278.910 270.227,279.900 269.344,281.000 268.403 C 308.388 244.986,335.658 210.795,349.276 182.800 C 353.702 173.701,357.820 163.696,358.990 159.200 C 359.133 158.650,359.415 157.840,359.617 157.400 C 360.138 156.261,362.406 147.521,363.041 144.200 C 366.262 127.376,365.873 113.799,361.769 99.700 C 361.132 97.512,362.483 99.198,365.297 104.100 " stroke="none" fill="#fbfbfb" fill-rule="evenodd"></path><path id="path1" d="M190.600 8.466 C 175.260 9.066,159.777 11.515,146.800 15.396 C 145.590 15.758,143.610 16.319,142.400 16.642 C 141.190 16.965,139.840 17.386,139.400 17.577 C 138.562 17.941,133.741 19.714,131.000 20.666 C 130.120 20.972,129.040 21.385,128.600 21.584 C 128.160 21.783,125.460 22.946,122.600 24.169 C 114.712 27.543,99.800 35.427,97.000 37.704 C 96.780 37.883,95.160 38.973,93.400 40.127 C 73.111 53.422,53.453 73.081,40.128 93.400 C 38.974 95.160,37.843 96.817,37.615 97.083 C 37.387 97.349,37.200 97.650,37.200 97.751 C 37.200 97.853,36.329 99.346,35.264 101.068 C 31.711 106.817,23.600 122.658,23.600 123.848 C 23.600 123.975,23.343 124.646,23.029 125.340 C 21.480 128.758,20.800 130.384,20.800 130.670 C 20.800 131.002,19.317 134.972,18.804 136.013 C 18.638 136.350,18.366 137.244,18.200 138.000 C 18.034 138.756,17.757 139.650,17.584 139.987 C 17.172 140.790,15.770 145.416,15.398 147.200 C 15.237 147.970,14.993 148.780,14.854 149.000 C 13.783 150.705,10.649 167.456,9.130 179.600 C 8.495 184.676,8.492 213.290,9.126 218.400 C 10.236 227.355,11.258 233.575,12.771 240.600 C 14.215 247.308,14.432 248.199,14.765 248.813 C 14.948 249.150,15.225 250.050,15.380 250.813 C 15.534 251.576,15.904 252.920,16.202 253.800 C 16.499 254.680,17.190 256.840,17.737 258.600 C 18.772 261.927,20.942 268.012,21.588 269.400 C 22.665 271.715,25.200 278.016,25.200 278.380 C 25.200 278.611,25.380 278.800,25.600 278.800 C 25.820 278.800,26.003 279.025,26.006 279.300 C 26.013 279.943,30.527 288.936,32.717 292.670 C 33.643 294.248,34.400 295.718,34.400 295.936 C 34.400 296.155,34.544 296.393,34.720 296.467 C 34.896 296.540,35.612 297.590,36.311 298.800 C 37.660 301.134,37.969 300.883,37.036 298.213 C 34.976 292.327,33.430 277.124,34.331 271.617 C 34.566 270.178,34.942 267.110,35.166 264.800 C 35.691 259.391,37.035 252.335,38.406 247.800 C 40.594 240.556,42.173 235.732,42.455 235.420 C 42.645 235.211,42.800 234.788,42.800 234.480 C 42.800 234.173,43.059 233.354,43.375 232.660 C 43.691 231.967,44.419 230.230,44.993 228.800 C 46.458 225.146,46.401 225.272,49.764 218.400 C 52.868 212.057,54.770 208.438,57.226 204.200 C 58.542 201.930,59.600 199.782,59.600 199.381 C 59.600 199.282,54.661 199.200,48.624 199.200 C 42.587 199.200,37.560 199.060,37.455 198.888 C 37.284 198.612,38.547 195.471,40.785 190.600 C 41.190 189.720,41.814 188.358,42.171 187.573 C 42.871 186.038,42.375 186.245,51.800 183.546 C 53.340 183.104,54.960 182.581,55.400 182.383 C 55.840 182.185,57.640 181.544,59.400 180.958 C 61.160 180.373,62.771 179.738,62.980 179.547 C 63.189 179.356,63.612 179.200,63.920 179.200 C 64.227 179.200,65.046 178.946,65.740 178.635 C 66.433 178.324,68.800 177.300,71.000 176.359 C 78.984 172.944,90.789 166.623,96.096 162.922 C 97.139 162.195,98.159 161.600,98.363 161.600 C 98.566 161.600,98.793 161.465,98.867 161.300 C 98.940 161.135,99.810 160.464,100.800 159.808 C 102.604 158.613,111.934 151.575,112.903 150.678 C 113.187 150.415,114.585 149.217,116.010 148.015 C 117.434 146.813,119.645 144.833,120.922 143.615 C 123.945 140.732,123.426 140.860,132.200 140.834 C 142.337 140.805,141.879 139.358,135.796 152.200 C 135.067 153.740,133.894 156.260,133.191 157.800 C 132.488 159.340,131.278 161.950,130.504 163.600 C 128.251 168.396,126.191 172.814,125.001 175.400 C 124.394 176.720,123.200 179.260,122.348 181.045 C 121.497 182.829,120.800 184.402,120.800 184.540 C 120.800 184.678,128.045 184.838,136.900 184.895 C 152.353 184.996,152.995 185.030,152.872 185.745 C 152.751 186.452,149.820 192.927,147.869 196.800 L 146.962 198.600 130.581 198.800 L 114.200 199.000 112.200 203.079 C 111.100 205.323,109.891 207.843,109.514 208.679 C 109.136 209.516,108.182 211.640,107.392 213.400 C 106.603 215.160,105.795 216.960,105.596 217.400 C 105.398 217.840,104.770 219.370,104.200 220.800 C 103.630 222.230,102.999 223.760,102.797 224.200 C 102.121 225.671,99.600 232.282,99.600 232.583 C 99.600 232.746,99.344 233.446,99.030 234.140 C 98.258 235.848,95.745 243.469,95.387 245.187 C 95.228 245.950,94.948 246.850,94.765 247.187 C 93.046 250.354,91.887 266.067,92.774 274.191 C 93.038 276.606,93.396 278.766,93.570 278.991 C 93.745 279.216,94.006 280.030,94.150 280.800 C 94.399 282.129,96.888 287.577,97.782 288.749 C 105.661 299.085,116.153 303.200,134.600 303.190 C 145.447 303.184,148.680 302.735,163.400 299.189 C 164.500 298.924,165.580 298.569,165.800 298.400 C 166.020 298.231,166.824 297.959,167.587 297.795 C 168.350 297.632,169.250 297.346,169.587 297.159 C 169.924 296.973,171.640 296.352,173.400 295.779 C 176.280 294.841,177.695 294.302,180.200 293.191 C 180.640 292.996,182.170 292.367,183.600 291.793 C 186.407 290.667,186.955 290.427,191.800 288.202 C 206.644 281.383,225.697 270.192,237.874 261.137 C 239.454 259.962,241.141 258.730,241.623 258.400 C 242.104 258.070,242.701 257.620,242.949 257.400 C 243.197 257.180,244.120 256.470,245.000 255.821 C 245.880 255.173,246.690 254.538,246.800 254.412 C 246.910 254.285,248.253 253.195,249.784 251.990 C 264.880 240.114,282.782 221.883,294.068 206.893 C 295.681 204.752,297.090 202.910,297.200 202.800 C 300.369 199.631,311.928 180.090,316.010 171.000 C 316.702 169.460,317.592 167.480,317.989 166.600 C 318.386 165.720,318.897 164.460,319.126 163.800 C 319.355 163.140,319.929 161.610,320.403 160.400 C 320.876 159.190,321.438 157.570,321.651 156.800 C 321.864 156.030,322.187 155.040,322.369 154.600 C 322.697 153.808,323.752 149.819,324.960 144.800 C 331.369 118.176,323.365 93.107,304.430 80.500 C 300.553 77.919,292.828 74.000,291.617 74.000 C 291.381 74.000,290.877 73.834,290.495 73.631 C 289.699 73.208,285.412 71.962,281.600 71.044 C 269.123 68.042,251.067 68.164,234.600 71.362 C 229.157 72.419,221.216 74.308,217.600 75.407 C 216.390 75.774,214.588 76.307,213.596 76.590 C 212.039 77.034,209.466 77.923,201.800 80.664 C 200.920 80.978,199.633 81.498,198.940 81.818 C 198.246 82.138,197.479 82.400,197.234 82.400 C 196.989 82.400,196.477 82.571,196.095 82.781 C 195.713 82.990,194.770 83.422,194.000 83.741 C 192.643 84.304,191.033 85.013,185.606 87.440 C 182.498 88.830,172.981 93.658,168.800 95.966 C 167.150 96.877,165.170 97.932,164.400 98.311 C 163.630 98.690,162.888 99.154,162.750 99.343 C 162.613 99.531,162.377 99.486,162.226 99.243 C 162.076 98.999,162.131 98.800,162.348 98.800 C 162.565 98.800,162.981 98.564,163.271 98.275 C 163.562 97.986,165.118 96.951,166.729 95.975 C 168.339 94.999,170.139 93.888,170.729 93.506 C 171.318 93.124,172.160 92.617,172.600 92.378 C 173.648 91.810,175.270 90.892,178.137 89.243 C 182.421 86.780,185.348 85.238,191.800 82.049 C 199.960 78.015,205.877 75.200,206.195 75.200 C 206.411 75.200,208.291 74.416,211.000 73.196 C 211.440 72.998,212.970 72.367,214.400 71.793 C 215.830 71.219,217.567 70.491,218.260 70.175 C 218.954 69.859,219.698 69.600,219.915 69.600 C 220.131 69.600,220.824 69.331,221.454 69.002 C 222.084 68.674,222.870 68.403,223.200 68.400 C 223.530 68.397,224.283 68.143,224.873 67.835 C 225.463 67.527,226.537 67.146,227.260 66.987 C 227.983 66.828,228.850 66.551,229.187 66.372 C 229.524 66.192,231.420 65.563,233.400 64.974 C 235.380 64.385,237.771 63.655,238.714 63.351 C 239.657 63.048,240.694 62.800,241.019 62.800 C 241.345 62.800,241.923 62.627,242.305 62.416 C 242.687 62.205,243.900 61.830,245.000 61.583 C 246.100 61.336,248.530 60.777,250.400 60.341 C 273.980 54.845,296.894 54.288,315.200 58.767 C 317.891 59.425,322.516 60.818,323.213 61.180 C 323.550 61.355,324.405 61.625,325.113 61.781 C 325.821 61.936,326.400 62.229,326.400 62.432 C 326.400 62.634,326.688 62.800,327.039 62.800 C 327.790 62.800,333.892 65.683,336.200 67.128 L 337.800 68.129 336.229 66.365 C 335.365 65.394,334.015 63.992,333.229 63.249 C 324.064 54.582,322.086 52.863,315.284 47.645 C 309.302 43.057,298.120 35.448,295.600 34.251 C 295.270 34.094,293.740 33.251,292.200 32.377 C 288.259 30.140,277.365 24.818,272.600 22.802 C 271.500 22.337,270.240 21.783,269.800 21.572 C 269.360 21.361,268.460 21.024,267.800 20.824 C 267.140 20.624,265.610 20.072,264.400 19.598 C 263.190 19.124,261.570 18.562,260.800 18.349 C 260.030 18.136,259.040 17.808,258.600 17.619 C 258.160 17.430,256.450 16.881,254.800 16.398 C 253.150 15.916,251.260 15.342,250.600 15.124 C 248.612 14.465,239.312 12.334,234.200 11.366 C 225.185 9.659,218.122 8.898,208.600 8.606 C 204.200 8.472,200.150 8.315,199.600 8.258 C 199.050 8.200,195.000 8.294,190.600 8.466 M363.200 102.245 C 363.200 102.380,363.553 103.955,363.985 105.745 C 366.190 114.885,366.348 129.942,364.349 140.400 C 362.951 147.718,362.052 151.647,361.584 152.495 C 361.373 152.877,361.200 153.450,361.200 153.770 C 361.200 154.491,359.285 160.748,358.775 161.695 C 358.569 162.077,358.400 162.573,358.400 162.797 C 358.400 163.363,355.608 170.465,353.603 175.000 C 349.909 183.354,343.078 196.077,338.785 202.600 C 337.916 203.920,337.081 205.270,336.930 205.600 C 336.638 206.236,335.146 208.463,334.787 208.800 C 334.670 208.910,333.966 209.961,333.222 211.135 C 332.479 212.310,330.865 214.590,329.636 216.202 C 328.406 217.814,327.130 219.526,326.800 220.006 C 325.508 221.886,323.173 224.971,322.885 225.180 C 322.718 225.301,321.609 226.660,320.420 228.200 C 319.232 229.740,318.066 231.180,317.830 231.400 C 317.593 231.620,316.525 232.880,315.456 234.200 C 308.816 242.398,292.682 259.012,284.383 266.198 C 283.622 266.856,281.458 268.746,279.574 270.398 C 277.690 272.049,275.350 274.059,274.374 274.864 C 273.398 275.669,271.430 277.296,270.000 278.480 C 268.570 279.663,266.050 281.655,264.400 282.906 C 262.750 284.156,261.205 285.343,260.967 285.542 C 259.920 286.422,251.729 292.330,249.796 293.600 C 248.624 294.370,245.356 296.543,242.533 298.430 C 233.637 304.375,223.745 310.400,222.881 310.400 C 222.653 310.400,222.407 310.557,222.333 310.750 C 222.037 311.529,200.924 322.225,194.981 324.607 C 194.111 324.955,192.860 325.490,192.200 325.795 C 191.540 326.101,190.100 326.734,189.000 327.204 C 187.900 327.673,186.687 328.224,186.305 328.429 C 185.923 328.633,185.383 328.806,185.105 328.814 C 184.827 328.821,183.880 329.175,183.000 329.600 C 182.120 330.025,181.173 330.379,180.895 330.386 C 180.617 330.394,180.077 330.579,179.695 330.797 C 178.913 331.244,178.013 331.561,169.000 334.564 C 165.480 335.737,161.970 336.820,161.200 336.972 C 160.430 337.123,159.440 337.406,159.000 337.600 C 158.560 337.794,157.300 338.158,156.200 338.407 C 155.100 338.657,153.120 339.134,151.800 339.468 C 134.072 343.945,111.276 345.882,98.400 344.005 C 90.646 342.874,86.024 342.046,85.000 341.603 C 84.560 341.413,83.236 341.042,82.057 340.778 C 80.878 340.515,78.988 339.948,77.857 339.518 C 76.726 339.088,75.236 338.568,74.546 338.362 C 73.856 338.156,71.021 336.844,68.246 335.446 C 65.471 334.049,63.200 332.962,63.200 333.032 C 63.200 333.183,69.358 339.122,72.200 341.713 C 76.903 345.999,85.734 352.993,90.000 355.811 C 90.990 356.465,91.980 357.147,92.200 357.326 C 92.420 357.505,94.130 358.619,96.000 359.800 C 97.870 360.981,99.617 362.140,99.883 362.374 C 100.149 362.608,100.482 362.800,100.623 362.800 C 100.764 362.800,102.616 363.799,104.740 365.020 C 106.863 366.241,108.950 367.434,109.377 367.671 C 111.218 368.694,118.768 372.405,120.600 373.189 C 121.700 373.659,122.960 374.204,123.400 374.400 C 126.563 375.809,128.000 376.402,128.278 376.414 C 128.455 376.421,129.320 376.771,130.200 377.191 C 131.080 377.610,134.680 378.884,138.200 380.021 C 141.720 381.159,144.960 382.236,145.400 382.415 C 145.840 382.594,148.180 383.210,150.600 383.784 C 153.020 384.358,155.630 385.007,156.400 385.225 C 158.464 385.812,161.362 386.389,165.266 386.990 C 167.172 387.284,169.064 387.630,169.470 387.759 C 175.288 389.605,208.786 390.622,217.273 389.209 C 218.663 388.978,222.050 388.525,224.800 388.202 C 231.962 387.362,244.066 385.021,248.600 383.598 C 249.260 383.391,251.150 382.838,252.800 382.368 C 256.808 381.227,263.895 378.877,265.460 378.170 C 266.154 377.856,266.921 377.600,267.166 377.600 C 267.411 377.600,267.923 377.425,268.305 377.210 C 268.687 376.996,270.170 376.356,271.600 375.790 C 280.616 372.217,299.698 362.107,304.200 358.519 C 304.420 358.343,305.410 357.664,306.400 357.009 C 308.716 355.478,320.170 346.807,322.000 345.200 C 322.770 344.524,324.527 343.033,325.904 341.886 C 328.217 339.959,339.295 328.873,341.604 326.174 C 347.995 318.706,348.230 318.414,352.374 312.800 C 353.916 310.710,355.318 308.820,355.489 308.600 C 355.660 308.380,356.340 307.390,357.000 306.400 C 357.660 305.410,358.335 304.540,358.500 304.467 C 358.665 304.393,358.800 304.164,358.800 303.957 C 358.800 303.751,359.721 302.191,360.847 300.491 C 361.973 298.791,363.053 297.040,363.246 296.600 C 363.440 296.160,363.775 295.530,363.991 295.200 C 366.046 292.066,373.371 277.653,373.821 275.857 C 373.967 275.276,374.228 274.800,374.400 274.800 C 374.572 274.800,374.829 274.305,374.970 273.700 C 375.112 273.095,375.485 272.060,375.799 271.400 C 376.805 269.285,379.031 263.141,380.582 258.200 C 381.410 255.560,382.237 253.040,382.420 252.600 C 382.604 252.160,382.934 250.990,383.156 250.000 C 383.377 249.010,383.930 246.760,384.384 245.000 C 385.450 240.872,386.313 236.672,386.986 232.334 C 387.282 230.428,387.628 228.538,387.754 228.134 C 390.357 219.810,390.477 188.997,387.975 171.800 C 387.750 170.260,387.384 167.650,387.161 166.000 C 386.938 164.350,386.597 162.640,386.405 162.200 C 386.212 161.760,385.862 160.320,385.626 159.000 C 384.937 155.143,382.999 147.231,382.393 145.800 C 382.207 145.360,381.599 143.470,381.043 141.600 C 379.818 137.479,378.844 134.475,378.385 133.400 C 378.056 132.631,377.198 130.465,375.533 126.200 C 375.104 125.100,374.505 123.660,374.202 123.000 C 373.900 122.340,372.994 120.360,372.190 118.600 C 368.668 110.893,363.200 100.945,363.200 102.245 " stroke="none" fill="#d41b23" fill-rule="evenodd"></path><path id="path2" d="M182.100 8.676 C 182.485 8.776,183.115 8.776,183.500 8.676 C 183.885 8.575,183.570 8.493,182.800 8.493 C 182.030 8.493,181.715 8.575,182.100 8.676 M214.500 8.676 C 214.885 8.776,215.515 8.776,215.900 8.676 C 216.285 8.575,215.970 8.493,215.200 8.493 C 214.430 8.493,214.115 8.575,214.500 8.676 M326.000 56.125 C 326.000 56.194,326.585 56.779,327.300 57.425 L 328.600 58.600 327.425 57.300 C 326.330 56.088,326.000 55.816,326.000 56.125 M333.800 63.600 C 335.771 65.580,337.473 67.200,337.583 67.200 C 337.693 67.200,336.171 65.580,334.200 63.600 C 332.229 61.620,330.527 60.000,330.417 60.000 C 330.307 60.000,331.829 61.620,333.800 63.600 M58.175 69.700 L 57.000 71.000 58.300 69.825 C 59.512 68.730,59.784 68.400,59.475 68.400 C 59.406 68.400,58.821 68.985,58.175 69.700 M258.115 68.696 C 259.388 68.776,261.368 68.775,262.515 68.694 C 263.662 68.614,262.620 68.549,260.200 68.550 C 257.780 68.551,256.842 68.616,258.115 68.696 M131.582 141.496 C 137.476 141.583,139.861 141.754,140.112 142.109 C 140.365 142.465,140.416 142.435,140.297 142.000 C 140.159 141.492,138.857 141.398,131.767 141.387 L 123.400 141.374 131.582 141.496 M119.178 145.500 L 117.800 147.000 119.300 145.622 C 120.125 144.863,120.800 144.188,120.800 144.122 C 120.800 143.816,120.462 144.104,119.178 145.500 M8.493 183.600 C 8.493 184.370,8.575 184.685,8.676 184.300 C 8.776 183.915,8.776 183.285,8.676 182.900 C 8.575 182.515,8.493 182.830,8.493 183.600 M389.701 187.400 C 389.705 188.280,389.787 188.593,389.883 188.095 C 389.979 187.598,389.975 186.878,389.875 186.495 C 389.775 186.113,389.696 186.520,389.701 187.400 M390.167 199.000 C 390.167 203.180,390.226 204.836,390.298 202.679 C 390.371 200.523,390.370 197.103,390.298 195.079 C 390.225 193.056,390.166 194.820,390.167 199.000 M113.861 198.700 C 113.758 198.865,115.412 198.952,117.537 198.894 C 124.382 198.706,125.137 198.546,119.524 198.472 C 116.512 198.432,113.963 198.535,113.861 198.700 M8.493 214.400 C 8.493 215.170,8.575 215.485,8.676 215.100 C 8.776 214.715,8.776 214.085,8.676 213.700 C 8.575 213.315,8.493 213.630,8.493 214.400 M272.593 231.700 L 268.200 236.200 272.700 231.807 C 275.175 229.391,277.200 227.366,277.200 227.307 C 277.200 227.018,276.674 227.520,272.593 231.700 M307.375 242.900 L 306.200 244.200 307.500 243.025 C 308.215 242.379,308.800 241.794,308.800 241.725 C 308.800 241.416,308.470 241.688,307.375 242.900 M297.192 253.500 L 293.400 257.400 297.300 253.608 C 300.922 250.086,301.382 249.600,301.092 249.600 C 301.033 249.600,299.278 251.355,297.192 253.500 M34.501 273.400 C 34.505 274.280,34.587 274.593,34.683 274.095 C 34.779 273.598,34.775 272.878,34.675 272.495 C 34.575 272.113,34.496 272.520,34.501 273.400 M34.501 280.600 C 34.505 281.480,34.587 281.793,34.683 281.295 C 34.779 280.798,34.775 280.078,34.675 279.695 C 34.575 279.313,34.496 279.720,34.501 280.600 M100.800 293.000 C 101.546 293.770,102.247 294.400,102.357 294.400 C 102.467 294.400,101.946 293.770,101.200 293.000 C 100.454 292.230,99.753 291.600,99.643 291.600 C 99.533 291.600,100.054 292.230,100.800 293.000 M37.887 301.316 C 37.749 301.678,37.819 302.088,38.044 302.227 C 38.622 302.584,38.744 302.324,38.420 301.429 C 38.174 300.752,38.109 300.738,37.887 301.316 M126.100 303.476 C 126.485 303.576,127.115 303.576,127.500 303.476 C 127.885 303.375,127.570 303.293,126.800 303.293 C 126.030 303.293,125.715 303.375,126.100 303.476 M141.300 303.476 C 141.685 303.576,142.315 303.576,142.700 303.476 C 143.085 303.375,142.770 303.293,142.000 303.293 C 141.230 303.293,140.915 303.375,141.300 303.476 M132.300 303.895 C 133.455 303.976,135.345 303.976,136.500 303.895 C 137.655 303.814,136.710 303.748,134.400 303.748 C 132.090 303.748,131.145 303.814,132.300 303.895 M338.378 329.900 L 337.000 331.400 338.500 330.022 C 339.896 328.738,340.184 328.400,339.878 328.400 C 339.812 328.400,339.137 329.075,338.378 329.900 M61.200 331.777 C 61.200 331.801,62.595 333.166,64.300 334.810 L 67.400 337.800 64.688 334.978 C 63.197 333.426,62.072 332.061,62.188 331.945 C 62.305 331.829,62.130 331.733,61.800 331.733 C 61.470 331.733,61.200 331.753,61.200 331.777 M329.375 338.900 L 328.200 340.200 329.500 339.025 C 330.215 338.379,330.800 337.794,330.800 337.725 C 330.800 337.416,330.470 337.688,329.375 338.900 M105.300 344.276 C 105.685 344.376,106.315 344.376,106.700 344.276 C 107.085 344.175,106.770 344.093,106.000 344.093 C 105.230 344.093,104.915 344.175,105.300 344.276 M116.705 344.283 C 117.202 344.379,117.922 344.375,118.305 344.275 C 118.687 344.175,118.280 344.096,117.400 344.101 C 116.520 344.105,116.207 344.187,116.705 344.283 M184.900 389.876 C 185.285 389.976,185.915 389.976,186.300 389.876 C 186.685 389.775,186.370 389.693,185.600 389.693 C 184.830 389.693,184.515 389.775,184.900 389.876 M211.700 389.876 C 212.085 389.976,212.715 389.976,213.100 389.876 C 213.485 389.775,213.170 389.693,212.400 389.693 C 211.630 389.693,211.315 389.775,211.700 389.876 M190.100 390.287 C 190.705 390.378,191.695 390.378,192.300 390.287 C 192.905 390.195,192.410 390.120,191.200 390.120 C 189.990 390.120,189.495 390.195,190.100 390.287 M205.700 390.287 C 206.305 390.378,207.295 390.378,207.900 390.287 C 208.505 390.195,208.010 390.120,206.800 390.120 C 205.590 390.120,205.095 390.195,205.700 390.287 " stroke="none" fill="#e67276" fill-rule="evenodd"></path><path id="path3" d="M195.121 7.899 C 197.388 7.970,200.988 7.970,203.121 7.898 C 205.255 7.826,203.400 7.768,199.000 7.768 C 194.600 7.768,192.855 7.827,195.121 7.899 M183.905 8.283 C 184.402 8.379,185.122 8.375,185.505 8.275 C 185.887 8.175,185.480 8.096,184.600 8.101 C 183.720 8.105,183.407 8.187,183.905 8.283 M212.705 8.283 C 213.202 8.379,213.922 8.375,214.305 8.275 C 214.687 8.175,214.280 8.096,213.400 8.101 C 212.520 8.105,212.207 8.187,212.705 8.283 M179.100 8.682 C 179.595 8.778,180.405 8.778,180.900 8.682 C 181.395 8.587,180.990 8.509,180.000 8.509 C 179.010 8.509,178.605 8.587,179.100 8.682 M217.305 8.687 C 217.914 8.779,218.814 8.777,219.305 8.682 C 219.797 8.587,219.300 8.511,218.200 8.514 C 217.100 8.517,216.697 8.595,217.305 8.687 M176.100 9.076 C 176.485 9.176,177.115 9.176,177.500 9.076 C 177.885 8.975,177.570 8.893,176.800 8.893 C 176.030 8.893,175.715 8.975,176.100 9.076 M168.200 10.000 C 167.130 10.272,167.108 10.305,168.000 10.305 C 168.550 10.305,169.540 10.168,170.200 10.000 C 171.270 9.728,171.292 9.695,170.400 9.695 C 169.850 9.695,168.860 9.832,168.200 10.000 M236.033 11.347 C 236.125 11.428,236.920 11.604,237.800 11.738 C 238.915 11.907,239.158 11.871,238.600 11.619 C 237.832 11.271,235.690 11.044,236.033 11.347 M154.200 12.800 C 153.181 13.238,154.232 13.238,155.600 12.800 C 156.404 12.543,156.443 12.477,155.800 12.468 C 155.360 12.462,154.640 12.611,154.200 12.800 M242.400 12.800 C 242.950 12.976,243.760 13.120,244.200 13.120 C 244.833 13.120,244.792 13.054,244.000 12.800 C 243.450 12.624,242.640 12.480,242.200 12.480 C 241.567 12.480,241.608 12.546,242.400 12.800 M149.400 14.000 C 148.896 14.217,148.822 14.344,149.200 14.344 C 149.530 14.344,150.160 14.189,150.600 14.000 C 151.104 13.783,151.178 13.656,150.800 13.656 C 150.470 13.656,149.840 13.811,149.400 14.000 M247.400 14.000 C 247.840 14.189,248.470 14.344,248.800 14.344 C 249.178 14.344,249.104 14.217,248.600 14.000 C 248.160 13.811,247.530 13.656,247.200 13.656 C 246.822 13.656,246.896 13.783,247.400 14.000 M274.800 23.400 C 275.350 23.714,275.980 23.972,276.200 23.972 C 276.420 23.972,276.150 23.714,275.600 23.400 C 275.050 23.086,274.420 22.828,274.200 22.828 C 273.980 22.828,274.250 23.086,274.800 23.400 M278.400 25.000 C 278.950 25.314,279.580 25.572,279.800 25.572 C 280.020 25.572,279.750 25.314,279.200 25.000 C 278.650 24.686,278.020 24.428,277.800 24.428 C 277.580 24.428,277.850 24.686,278.400 25.000 M111.500 28.629 C 109.949 29.470,110.125 29.761,111.700 28.959 C 113.208 28.193,113.475 27.994,112.967 28.016 C 112.765 28.025,112.105 28.301,111.500 28.629 M323.600 53.725 C 323.600 53.794,324.185 54.379,324.900 55.025 L 326.200 56.200 325.025 54.900 C 323.930 53.688,323.600 53.416,323.600 53.725 M71.775 56.100 L 70.600 57.400 71.900 56.225 C 72.615 55.579,73.200 54.994,73.200 54.925 C 73.200 54.616,72.870 54.888,71.775 56.100 M281.900 56.293 C 282.835 56.377,284.365 56.377,285.300 56.293 C 286.235 56.209,285.470 56.140,283.600 56.140 C 281.730 56.140,280.965 56.209,281.900 56.293 M291.300 56.291 C 292.125 56.378,293.475 56.378,294.300 56.291 C 295.125 56.205,294.450 56.134,292.800 56.134 C 291.150 56.134,290.475 56.205,291.300 56.291 M276.707 56.690 C 277.426 56.779,278.506 56.777,279.107 56.686 C 279.708 56.595,279.120 56.522,277.800 56.524 C 276.480 56.526,275.988 56.601,276.707 56.690 M297.107 56.690 C 297.826 56.779,298.906 56.777,299.507 56.686 C 300.108 56.595,299.520 56.522,298.200 56.524 C 296.880 56.526,296.388 56.601,297.107 56.690 M328.383 58.100 C 330.041 59.866,330.400 60.184,330.400 59.883 C 330.400 59.819,329.545 58.964,328.500 57.983 L 326.600 56.200 328.383 58.100 M302.100 57.076 C 302.485 57.176,303.115 57.176,303.500 57.076 C 303.885 56.975,303.570 56.893,302.800 56.893 C 302.030 56.893,301.715 56.975,302.100 57.076 M265.700 57.876 C 266.085 57.976,266.715 57.976,267.100 57.876 C 267.485 57.775,267.170 57.693,266.400 57.693 C 265.630 57.693,265.315 57.775,265.700 57.876 M63.594 63.900 L 58.600 69.000 63.700 64.006 C 68.437 59.367,68.981 58.800,68.694 58.800 C 68.636 58.800,66.341 61.095,63.594 63.900 M257.200 59.200 C 256.408 59.454,256.367 59.520,257.000 59.520 C 257.440 59.520,258.250 59.376,258.800 59.200 C 259.592 58.946,259.633 58.880,259.000 58.880 C 258.560 58.880,257.750 59.024,257.200 59.200 M314.600 59.200 C 315.040 59.389,315.670 59.544,316.000 59.544 C 316.378 59.544,316.304 59.417,315.800 59.200 C 315.360 59.011,314.730 58.856,314.400 58.856 C 314.022 58.856,314.096 58.983,314.600 59.200 M251.600 60.400 C 250.776 60.664,250.741 60.726,251.400 60.754 C 251.840 60.773,252.470 60.613,252.800 60.400 C 253.501 59.947,253.014 59.947,251.600 60.400 M246.400 61.600 C 245.576 61.864,245.541 61.926,246.200 61.954 C 246.640 61.973,247.270 61.813,247.600 61.600 C 248.301 61.147,247.814 61.147,246.400 61.600 M338.401 68.132 C 338.951 68.755,339.341 69.380,339.270 69.522 C 339.199 69.664,339.334 69.844,339.570 69.923 C 340.413 70.204,339.979 69.331,338.701 68.175 L 337.403 67.000 338.401 68.132 M251.700 68.691 C 252.525 68.778,253.875 68.778,254.700 68.691 C 255.525 68.605,254.850 68.534,253.200 68.534 C 251.550 68.534,250.875 68.605,251.700 68.691 M265.700 68.691 C 266.525 68.778,267.875 68.778,268.700 68.691 C 269.525 68.605,268.850 68.534,267.200 68.534 C 265.550 68.534,264.875 68.605,265.700 68.691 M247.505 69.083 C 248.002 69.179,248.722 69.175,249.105 69.075 C 249.487 68.975,249.080 68.896,248.200 68.901 C 247.320 68.905,247.007 68.987,247.505 69.083 M270.900 69.076 C 271.285 69.176,271.915 69.176,272.300 69.076 C 272.685 68.975,272.370 68.893,271.600 68.893 C 270.830 68.893,270.515 68.975,270.900 69.076 M278.000 70.000 C 278.550 70.176,279.360 70.320,279.800 70.320 C 280.433 70.320,280.392 70.254,279.600 70.000 C 279.050 69.824,278.240 69.680,277.800 69.680 C 277.167 69.680,277.208 69.746,278.000 70.000 M55.775 72.100 L 54.600 73.400 55.900 72.225 C 57.112 71.130,57.384 70.800,57.075 70.800 C 57.006 70.800,56.421 71.385,55.775 72.100 M284.433 71.344 C 284.525 71.423,285.140 71.608,285.800 71.756 C 286.676 71.952,286.838 71.915,286.400 71.618 C 285.860 71.253,284.032 70.998,284.433 71.344 M203.700 79.212 C 202.361 79.751,202.611 80.024,204.000 79.540 C 204.660 79.310,205.200 79.049,205.200 78.961 C 205.200 78.724,204.713 78.805,203.700 79.212 M195.200 80.600 C 194.650 80.914,194.380 81.172,194.600 81.172 C 194.820 81.172,195.450 80.914,196.000 80.600 C 196.550 80.286,196.820 80.028,196.600 80.028 C 196.380 80.028,195.750 80.286,195.200 80.600 M47.344 82.300 C 45.318 84.852,45.071 85.200,45.287 85.200 C 45.388 85.200,46.310 84.120,47.335 82.800 C 48.360 81.480,49.121 80.400,49.026 80.400 C 48.931 80.400,48.174 81.255,47.344 82.300 M187.900 84.229 C 186.405 85.040,186.496 85.378,188.000 84.600 C 188.660 84.259,189.200 83.894,189.200 83.790 C 189.200 83.532,189.157 83.547,187.900 84.229 M312.000 86.200 C 313.195 87.410,314.263 88.400,314.373 88.400 C 314.483 88.400,313.595 87.410,312.400 86.200 C 311.205 84.990,310.137 84.000,310.027 84.000 C 309.917 84.000,310.805 84.990,312.000 86.200 M177.776 89.801 C 177.024 90.384,177.023 90.394,177.766 90.133 C 178.323 89.937,178.446 90.002,178.217 90.372 C 177.965 90.780,178.089 90.783,178.852 90.386 C 180.199 89.684,180.354 89.453,179.250 89.793 C 178.598 89.994,178.386 89.947,178.574 89.643 C 178.947 89.038,178.699 89.087,177.776 89.801 M176.604 90.806 C 176.842 91.192,176.748 91.266,176.257 91.077 C 175.844 90.919,175.275 91.125,174.791 91.609 C 174.356 92.044,174.000 92.304,174.000 92.186 C 174.000 92.068,173.640 92.165,173.200 92.400 C 172.760 92.635,172.400 93.006,172.400 93.224 C 172.400 93.442,172.940 93.341,173.600 93.000 C 174.260 92.659,174.800 92.185,174.800 91.947 C 174.800 91.709,175.053 91.611,175.361 91.730 C 176.184 92.046,177.485 91.023,176.799 90.599 C 176.430 90.371,176.372 90.432,176.604 90.806 M170.584 94.014 C 169.933 94.444,169.670 94.790,170.000 94.785 C 170.693 94.773,172.233 93.699,171.955 93.421 C 171.852 93.318,171.235 93.585,170.584 94.014 M361.628 99.300 C 361.687 100.346,362.340 101.508,362.372 100.624 C 362.400 99.855,362.406 99.855,363.028 100.624 C 363.476 101.177,363.452 101.027,362.942 100.100 C 362.217 98.780,361.577 98.391,361.628 99.300 M325.444 110.200 C 325.773 111.671,326.002 111.990,325.994 110.967 C 325.991 110.545,325.805 109.930,325.582 109.600 C 325.285 109.162,325.248 109.324,325.444 110.200 M364.493 111.800 C 364.494 112.460,364.632 113.540,364.800 114.200 C 365.223 115.863,365.242 114.226,364.823 112.200 C 364.545 110.855,364.492 110.791,364.493 111.800 M326.901 117.800 C 326.905 118.680,326.987 118.993,327.083 118.495 C 327.179 117.998,327.175 117.278,327.075 116.895 C 326.975 116.513,326.896 116.920,326.901 117.800 M365.348 123.200 C 365.348 125.510,365.414 126.455,365.495 125.300 C 365.576 124.145,365.576 122.255,365.495 121.100 C 365.414 119.945,365.348 120.890,365.348 123.200 M327.364 126.600 C 327.363 130.340,327.423 131.924,327.497 130.120 C 327.571 128.315,327.572 125.255,327.498 123.320 C 327.425 121.384,327.364 122.860,327.364 126.600 M364.893 132.400 C 364.893 133.170,364.975 133.485,365.076 133.100 C 365.176 132.715,365.176 132.085,365.076 131.700 C 364.975 131.315,364.893 131.630,364.893 132.400 M326.901 135.000 C 326.905 135.880,326.987 136.193,327.083 135.695 C 327.179 135.198,327.175 134.478,327.075 134.095 C 326.975 133.713,326.896 134.120,326.901 135.000 M364.493 135.200 C 364.493 135.970,364.575 136.285,364.676 135.900 C 364.776 135.515,364.776 134.885,364.676 134.500 C 364.575 134.115,364.493 134.430,364.493 135.200 M325.800 142.000 C 325.646 142.910,325.604 143.738,325.707 143.840 C 325.810 143.943,326.013 143.277,326.160 142.360 C 326.307 141.443,326.348 140.615,326.253 140.520 C 326.158 140.424,325.954 141.090,325.800 142.000 M381.429 141.600 C 381.576 142.150,381.864 142.870,382.067 143.200 C 382.325 143.617,382.357 143.495,382.171 142.800 C 382.024 142.250,381.736 141.530,381.533 141.200 C 381.275 140.783,381.243 140.905,381.429 141.600 M121.583 143.500 L 119.800 145.400 121.793 143.600 C 122.888 142.610,123.863 141.755,123.959 141.700 C 124.055 141.645,123.961 141.600,123.750 141.600 C 123.539 141.600,122.564 142.455,121.583 143.500 M382.856 146.000 C 382.856 146.330,383.011 146.960,383.200 147.400 C 383.417 147.904,383.544 147.978,383.544 147.600 C 383.544 147.270,383.389 146.640,383.200 146.200 C 382.983 145.696,382.856 145.622,382.856 146.000 M324.229 149.029 C 324.081 149.615,324.038 150.172,324.132 150.266 C 324.227 150.360,324.424 149.958,324.571 149.371 C 324.719 148.785,324.762 148.228,324.668 148.134 C 324.573 148.040,324.376 148.442,324.229 149.029 M361.829 149.029 C 361.681 149.615,361.638 150.172,361.732 150.266 C 361.827 150.360,362.024 149.958,362.171 149.371 C 362.319 148.785,362.362 148.228,362.268 148.134 C 362.173 148.040,361.976 148.442,361.829 149.029 M13.829 150.229 C 13.681 150.815,13.638 151.372,13.732 151.466 C 13.827 151.560,14.024 151.158,14.171 150.571 C 14.319 149.985,14.362 149.428,14.268 149.334 C 14.173 149.240,13.976 149.642,13.829 150.229 M384.244 151.400 C 384.573 152.871,384.802 153.190,384.794 152.167 C 384.791 151.745,384.605 151.130,384.382 150.800 C 384.085 150.362,384.048 150.524,384.244 151.400 M135.265 151.817 C 134.595 153.288,134.723 153.602,135.447 152.265 C 135.786 151.640,135.988 151.054,135.896 150.963 C 135.805 150.871,135.521 151.256,135.265 151.817 M323.029 153.429 C 322.881 154.015,322.838 154.572,322.932 154.666 C 323.027 154.760,323.224 154.358,323.371 153.771 C 323.519 153.185,323.562 152.628,323.468 152.534 C 323.373 152.440,323.176 152.842,323.029 153.429 M12.600 155.200 C 12.448 155.891,12.407 156.541,12.509 156.642 C 12.611 156.744,12.809 156.253,12.950 155.550 C 13.283 153.883,12.960 153.560,12.600 155.200 M385.668 157.000 C 385.662 157.440,385.811 158.160,386.000 158.600 C 386.438 159.619,386.438 158.568,386.000 157.200 C 385.743 156.396,385.677 156.357,385.668 157.000 M104.200 157.835 L 103.000 158.866 104.300 158.006 C 105.015 157.533,105.600 157.068,105.600 156.973 C 105.600 156.673,105.431 156.778,104.200 157.835 M132.465 157.817 C 131.795 159.288,131.923 159.602,132.647 158.265 C 132.986 157.640,133.188 157.054,133.096 156.963 C 133.005 156.871,132.721 157.256,132.465 157.817 M127.265 169.017 C 126.595 170.488,126.723 170.802,127.447 169.465 C 127.786 168.840,127.988 168.254,127.896 168.163 C 127.805 168.071,127.521 168.456,127.265 169.017 M354.065 172.217 C 353.395 173.688,353.523 174.002,354.247 172.665 C 354.586 172.040,354.788 171.454,354.696 171.363 C 354.605 171.271,354.321 171.656,354.065 172.217 M388.493 172.400 C 388.493 173.170,388.575 173.485,388.676 173.100 C 388.776 172.715,388.776 172.085,388.676 171.700 C 388.575 171.315,388.493 171.630,388.493 172.400 M71.200 176.600 C 70.650 176.914,70.380 177.172,70.600 177.172 C 70.820 177.172,71.450 176.914,72.000 176.600 C 72.550 176.286,72.820 176.028,72.600 176.028 C 72.380 176.028,71.750 176.286,71.200 176.600 M351.265 178.617 C 350.595 180.088,350.723 180.402,351.447 179.065 C 351.786 178.440,351.988 177.854,351.896 177.763 C 351.805 177.671,351.521 178.056,351.265 178.617 M8.514 180.600 C 8.517 181.700,8.595 182.103,8.687 181.495 C 8.779 180.886,8.777 179.986,8.682 179.495 C 8.587 179.003,8.511 179.500,8.514 180.600 M389.724 183.800 C 389.726 185.120,389.801 185.612,389.890 184.893 C 389.979 184.174,389.977 183.094,389.886 182.493 C 389.795 181.892,389.722 182.480,389.724 183.800 M8.101 185.400 C 8.105 186.280,8.187 186.593,8.283 186.095 C 8.379 185.598,8.375 184.878,8.275 184.495 C 8.175 184.113,8.096 184.520,8.101 185.400 M45.200 185.800 C 44.430 186.097,44.070 186.345,44.400 186.352 C 44.730 186.358,45.540 186.117,46.200 185.814 C 47.745 185.107,47.026 185.097,45.200 185.800 M128.127 185.500 C 132.707 185.564,140.087 185.564,144.527 185.499 C 148.967 185.435,145.220 185.383,136.200 185.383 C 127.180 185.383,123.547 185.435,128.127 185.500 M390.128 189.200 C 390.128 190.630,390.201 191.215,390.289 190.500 C 390.378 189.785,390.378 188.615,390.289 187.900 C 390.201 187.185,390.128 187.770,390.128 189.200 M150.065 190.617 C 149.395 192.088,149.523 192.402,150.247 191.065 C 150.586 190.440,150.788 189.854,150.696 189.763 C 150.605 189.671,150.321 190.056,150.065 190.617 M7.762 199.000 C 7.762 202.520,7.824 203.906,7.898 202.081 C 7.972 200.256,7.972 197.376,7.897 195.681 C 7.822 193.986,7.761 195.480,7.762 199.000 M39.265 194.617 C 38.595 196.088,38.723 196.402,39.447 195.065 C 39.786 194.440,39.988 193.854,39.896 193.763 C 39.805 193.671,39.521 194.056,39.265 194.617 M147.132 196.989 C 146.691 197.957,146.574 197.980,141.441 198.101 L 136.200 198.225 141.490 198.313 L 146.779 198.400 147.400 197.200 C 147.741 196.540,147.922 196.000,147.802 196.000 C 147.681 196.000,147.380 196.445,147.132 196.989 M37.843 197.833 C 37.709 198.181,37.600 198.541,37.600 198.633 C 37.600 198.725,42.625 198.800,48.767 198.800 C 55.994 198.800,60.005 198.945,60.137 199.210 C 60.249 199.436,60.294 199.391,60.237 199.110 C 60.157 198.715,57.651 198.576,49.082 198.494 C 39.503 198.402,38.060 198.308,38.258 197.794 C 38.383 197.467,38.396 197.200,38.286 197.200 C 38.176 197.200,37.976 197.485,37.843 197.833 M293.298 208.400 C 291.923 210.160,290.881 211.600,290.982 211.600 C 291.171 211.600,295.213 206.597,295.749 205.700 C 296.470 204.492,295.620 205.429,293.298 208.400 M390.131 209.000 C 390.133 210.540,390.205 211.121,390.292 210.291 C 390.379 209.461,390.377 208.201,390.289 207.491 C 390.200 206.781,390.129 207.460,390.131 209.000 M8.109 212.400 C 8.109 213.390,8.187 213.795,8.282 213.300 C 8.378 212.805,8.378 211.995,8.282 211.500 C 8.187 211.005,8.109 211.410,8.109 212.400 M389.728 214.400 C 389.728 215.830,389.801 216.415,389.889 215.700 C 389.978 214.985,389.978 213.815,389.889 213.100 C 389.801 212.385,389.728 212.970,389.728 214.400 M287.968 215.100 C 285.609 217.743,285.074 218.400,285.282 218.400 C 285.403 218.400,286.349 217.410,287.382 216.200 C 289.296 213.960,289.755 213.098,287.968 215.100 M8.514 217.400 C 8.517 218.500,8.595 218.903,8.687 218.295 C 8.779 217.686,8.777 216.786,8.682 216.295 C 8.587 215.803,8.511 216.300,8.514 217.400 M283.206 220.594 C 282.463 221.361,281.932 222.050,282.027 222.125 C 282.122 222.200,282.806 221.573,283.546 220.731 C 285.229 218.818,285.012 218.731,283.206 220.594 M278.985 225.300 L 277.000 227.400 279.100 225.415 C 281.051 223.571,281.383 223.200,281.085 223.200 C 281.022 223.200,280.077 224.145,278.985 225.300 M388.460 225.250 C 388.427 225.828,388.311 226.907,388.201 227.650 L 388.003 229.000 388.424 227.657 C 388.655 226.919,388.772 225.839,388.682 225.257 L 388.520 224.200 388.460 225.250 M272.992 231.700 L 269.400 235.400 273.100 231.808 C 276.536 228.472,276.982 228.000,276.692 228.000 C 276.632 228.000,274.967 229.665,272.992 231.700 M44.467 230.780 C 44.233 231.451,44.127 232.000,44.231 232.000 C 44.501 232.000,45.256 229.922,45.057 229.724 C 44.967 229.633,44.701 230.108,44.467 230.780 M316.368 232.300 C 314.009 234.943,313.474 235.600,313.682 235.600 C 313.803 235.600,314.749 234.610,315.782 233.400 C 317.696 231.160,318.155 230.298,316.368 232.300 M98.044 234.844 C 97.798 235.551,97.666 236.200,97.752 236.285 C 97.838 236.371,98.109 235.862,98.356 235.156 C 98.602 234.449,98.734 233.800,98.648 233.715 C 98.562 233.629,98.291 234.138,98.044 234.844 M11.206 236.433 C 11.209 236.965,11.389 237.670,11.606 238.000 C 11.882 238.422,11.923 238.185,11.742 237.200 C 11.425 235.475,11.198 235.149,11.206 236.433 M311.775 237.700 L 310.600 239.000 311.900 237.825 C 312.615 237.179,313.200 236.594,313.200 236.525 C 313.200 236.216,312.870 236.488,311.775 237.700 M264.378 239.900 L 263.000 241.400 264.500 240.022 C 265.896 238.738,266.184 238.400,265.878 238.400 C 265.812 238.400,265.137 239.075,264.378 239.900 M308.420 241.379 L 306.640 243.400 308.601 241.514 C 309.679 240.477,310.480 239.567,310.381 239.493 C 310.281 239.419,309.399 240.267,308.420 241.379 M12.456 242.000 C 12.456 242.330,12.611 242.960,12.800 243.400 C 13.017 243.904,13.144 243.978,13.144 243.600 C 13.144 243.270,12.989 242.640,12.800 242.200 C 12.583 241.696,12.456 241.622,12.456 242.000 M259.978 243.900 L 258.600 245.400 260.100 244.022 C 260.925 243.263,261.600 242.588,261.600 242.522 C 261.600 242.216,261.262 242.504,259.978 243.900 M302.991 247.300 L 299.800 250.600 303.100 247.409 C 304.915 245.655,306.400 244.170,306.400 244.109 C 306.400 243.818,305.954 244.235,302.991 247.300 M39.029 246.629 C 38.881 247.215,38.838 247.772,38.932 247.866 C 39.027 247.960,39.224 247.558,39.371 246.971 C 39.519 246.385,39.562 245.828,39.468 245.734 C 39.373 245.640,39.176 246.042,39.029 246.629 M37.800 251.200 C 37.648 251.891,37.607 252.541,37.709 252.642 C 37.811 252.744,38.009 252.253,38.150 251.550 C 38.483 249.883,38.160 249.560,37.800 251.200 M92.669 253.556 C 92.521 254.295,92.420 255.282,92.444 255.750 C 92.468 256.218,92.647 255.790,92.842 254.800 C 93.037 253.810,93.138 252.823,93.067 252.606 C 92.996 252.390,92.817 252.817,92.669 253.556 M36.250 258.450 C 35.917 260.117,36.240 260.440,36.600 258.800 C 36.752 258.109,36.793 257.459,36.691 257.358 C 36.589 257.256,36.391 257.747,36.250 258.450 M289.385 260.900 L 287.400 263.000 289.500 261.015 C 291.451 259.171,291.783 258.800,291.485 258.800 C 291.422 258.800,290.477 259.745,289.385 260.900 M19.029 264.400 C 19.176 264.950,19.464 265.670,19.667 266.000 C 19.925 266.417,19.957 266.295,19.771 265.600 C 19.624 265.050,19.336 264.330,19.133 264.000 C 18.875 263.583,18.843 263.705,19.029 264.400 M284.581 265.300 L 283.000 267.000 284.700 265.419 C 285.635 264.549,286.400 263.784,286.400 263.719 C 286.400 263.416,286.052 263.719,284.581 265.300 M91.734 266.800 C 91.734 268.450,91.805 269.125,91.891 268.300 C 91.978 267.475,91.978 266.125,91.891 265.300 C 91.805 264.475,91.734 265.150,91.734 266.800 M35.293 265.600 C 35.293 266.370,35.375 266.685,35.476 266.300 C 35.576 265.915,35.576 265.285,35.476 264.900 C 35.375 264.515,35.293 264.830,35.293 265.600 M20.218 267.700 C 20.368 268.195,20.655 268.776,20.856 268.991 C 21.057 269.206,21.019 268.801,20.772 268.091 C 20.265 266.638,19.797 266.308,20.218 267.700 M280.400 268.874 C 279.410 269.776,278.960 270.324,279.400 270.092 C 280.152 269.694,282.752 267.181,282.375 267.216 C 282.279 267.225,281.390 267.971,280.400 268.874 M34.920 269.600 C 34.920 270.810,34.995 271.305,35.087 270.700 C 35.178 270.095,35.178 269.105,35.087 268.500 C 34.995 267.895,34.920 268.390,34.920 269.600 M274.975 273.700 L 273.800 275.000 275.100 273.825 C 275.815 273.179,276.400 272.594,276.400 272.525 C 276.400 272.216,276.070 272.488,274.975 273.700 M216.696 275.350 C 214.775 276.531,214.238 277.089,215.800 276.281 C 217.054 275.633,218.745 274.426,218.400 274.425 C 218.290 274.425,217.523 274.841,216.696 275.350 M34.524 277.000 C 34.526 278.320,34.601 278.812,34.690 278.093 C 34.779 277.374,34.777 276.294,34.686 275.693 C 34.595 275.092,34.522 275.680,34.524 277.000 M269.389 278.231 L 267.400 280.061 269.500 278.368 C 271.384 276.849,271.838 276.400,271.489 276.400 C 271.428 276.400,270.483 277.224,269.389 278.231 M34.914 284.600 C 34.917 285.700,34.995 286.103,35.087 285.495 C 35.179 284.886,35.177 283.986,35.082 283.495 C 34.987 283.003,34.911 283.500,34.914 284.600 M35.293 288.000 C 35.293 288.770,35.375 289.085,35.476 288.700 C 35.576 288.315,35.576 287.685,35.476 287.300 C 35.375 286.915,35.293 287.230,35.293 288.000 M191.600 288.600 C 191.050 288.914,190.780 289.172,191.000 289.172 C 191.220 289.172,191.850 288.914,192.400 288.600 C 192.950 288.286,193.220 288.028,193.000 288.028 C 192.780 288.028,192.150 288.286,191.600 288.600 M365.800 292.800 C 365.459 293.460,365.269 294.000,365.379 294.000 C 365.489 294.000,365.859 293.460,366.200 292.800 C 366.541 292.140,366.731 291.600,366.621 291.600 C 366.511 291.600,366.141 292.140,365.800 292.800 M36.056 293.200 C 36.056 293.530,36.211 294.160,36.400 294.600 C 36.617 295.104,36.744 295.178,36.744 294.800 C 36.744 294.470,36.589 293.840,36.400 293.400 C 36.183 292.896,36.056 292.822,36.056 293.200 M363.000 297.600 C 362.659 298.260,362.469 298.800,362.579 298.800 C 362.689 298.800,363.059 298.260,363.400 297.600 C 363.741 296.940,363.931 296.400,363.821 296.400 C 363.711 296.400,363.341 296.940,363.000 297.600 M168.600 297.814 C 167.600 298.296,167.566 298.351,168.400 298.148 C 169.533 297.871,170.807 297.221,170.200 297.230 C 169.980 297.233,169.260 297.496,168.600 297.814 M117.000 302.000 C 117.440 302.189,118.070 302.344,118.400 302.344 C 118.778 302.344,118.704 302.217,118.200 302.000 C 117.760 301.811,117.130 301.656,116.800 301.656 C 116.422 301.656,116.496 301.783,117.000 302.000 M144.600 303.200 L 143.000 303.486 144.400 303.496 C 145.170 303.501,146.340 303.368,147.000 303.200 C 148.628 302.786,146.913 302.786,144.600 303.200 M233.300 303.646 C 231.937 304.519,231.495 305.106,232.700 304.443 C 233.618 303.939,235.056 302.827,234.800 302.819 C 234.690 302.816,234.015 303.188,233.300 303.646 M128.305 303.883 C 128.802 303.979,129.522 303.975,129.905 303.875 C 130.287 303.775,129.880 303.696,129.000 303.701 C 128.120 303.705,127.807 303.787,128.305 303.883 M139.105 303.883 C 139.602 303.979,140.322 303.975,140.705 303.875 C 141.087 303.775,140.680 303.696,139.800 303.701 C 138.920 303.705,138.607 303.787,139.105 303.883 M217.900 312.629 C 216.405 313.440,216.496 313.778,218.000 313.000 C 218.660 312.659,219.200 312.294,219.200 312.190 C 219.200 311.932,219.157 311.947,217.900 312.629 M346.401 320.998 C 345.886 321.548,345.539 322.064,345.632 322.146 C 345.724 322.228,346.219 321.778,346.730 321.147 C 347.876 319.735,347.674 319.644,346.401 320.998 M341.600 326.600 C 340.628 327.590,339.923 328.400,340.033 328.400 C 340.143 328.400,341.028 327.590,342.000 326.600 C 342.972 325.610,343.677 324.800,343.567 324.800 C 343.457 324.800,342.572 325.610,341.600 326.600 M334.200 334.400 C 331.567 337.040,329.503 339.200,329.613 339.200 C 329.723 339.200,331.967 337.040,334.600 334.400 C 337.233 331.760,339.297 329.600,339.187 329.600 C 339.077 329.600,336.833 331.760,334.200 334.400 M60.400 331.000 C 60.674 331.330,61.200 331.600,61.569 331.600 C 61.938 331.600,62.456 331.816,62.720 332.080 C 62.984 332.344,63.200 332.431,63.200 332.274 C 63.200 331.945,60.773 330.404,60.251 330.401 C 60.059 330.401,60.126 330.670,60.400 331.000 M164.600 335.414 C 163.600 335.896,163.566 335.951,164.400 335.748 C 165.533 335.471,166.807 334.821,166.200 334.830 C 165.980 334.833,165.260 335.096,164.600 335.414 M68.783 339.300 C 69.764 340.345,70.619 341.200,70.683 341.200 C 70.984 341.200,70.666 340.841,68.900 339.183 L 67.000 337.400 68.783 339.300 M155.200 338.000 C 154.376 338.264,154.341 338.326,155.000 338.354 C 155.440 338.373,156.070 338.213,156.400 338.000 C 157.101 337.547,156.614 337.547,155.200 338.000 M78.000 339.133 C 78.330 339.336,79.050 339.624,79.600 339.771 C 80.295 339.957,80.417 339.925,80.000 339.667 C 79.670 339.464,78.950 339.176,78.400 339.029 C 77.705 338.843,77.583 338.875,78.000 339.133 M148.800 339.618 C 148.362 339.915,148.524 339.952,149.400 339.756 C 150.871 339.427,151.190 339.198,150.167 339.206 C 149.745 339.209,149.130 339.395,148.800 339.618 M326.778 341.500 L 325.400 343.000 326.900 341.622 C 328.296 340.338,328.584 340.000,328.278 340.000 C 328.212 340.000,327.537 340.675,326.778 341.500 M83.000 340.800 C 83.440 340.989,84.070 341.144,84.400 341.144 C 84.778 341.144,84.704 341.017,84.200 340.800 C 83.760 340.611,83.130 340.456,82.800 340.456 C 82.422 340.456,82.496 340.583,83.000 340.800 M142.800 340.800 C 142.008 341.054,141.967 341.120,142.600 341.120 C 143.040 341.120,143.850 340.976,144.400 340.800 C 145.192 340.546,145.233 340.480,144.600 340.480 C 144.160 340.480,143.350 340.624,142.800 340.800 M88.200 342.000 C 88.640 342.189,89.360 342.338,89.800 342.332 C 90.443 342.323,90.404 342.257,89.600 342.000 C 88.232 341.562,87.181 341.562,88.200 342.000 M72.400 342.525 C 72.400 342.594,72.985 343.179,73.700 343.825 L 75.000 345.000 73.825 343.700 C 72.730 342.488,72.400 342.216,72.400 342.525 M97.100 343.482 C 97.595 343.578,98.405 343.578,98.900 343.482 C 99.395 343.387,98.990 343.309,98.000 343.309 C 97.010 343.309,96.605 343.387,97.100 343.482 M125.305 343.487 C 125.914 343.579,126.814 343.577,127.305 343.482 C 127.797 343.387,127.300 343.311,126.200 343.314 C 125.100 343.317,124.697 343.395,125.305 343.487 M121.700 343.876 C 122.085 343.976,122.715 343.976,123.100 343.876 C 123.485 343.775,123.170 343.693,122.400 343.693 C 121.630 343.693,121.315 343.775,121.700 343.876 M109.300 344.296 C 110.565 344.375,112.635 344.375,113.900 344.296 C 115.165 344.216,114.130 344.151,111.600 344.151 C 109.070 344.151,108.035 344.216,109.300 344.296 M320.770 346.700 L 319.800 347.800 321.000 346.800 C 321.660 346.250,322.275 345.755,322.367 345.700 C 322.458 345.645,322.355 345.600,322.136 345.600 C 321.918 345.600,321.303 346.095,320.770 346.700 M85.200 352.946 C 85.200 353.056,85.740 353.530,86.400 354.000 C 87.060 354.470,87.600 354.764,87.600 354.654 C 87.600 354.544,87.060 354.070,86.400 353.600 C 85.740 353.130,85.200 352.836,85.200 352.946 M308.900 355.640 C 307.965 356.302,307.200 356.933,307.200 357.041 C 307.200 357.150,308.010 356.681,309.000 356.000 C 309.990 355.319,310.800 354.680,310.800 354.581 C 310.800 354.305,310.724 354.348,308.900 355.640 M300.500 361.246 C 299.137 362.119,298.695 362.706,299.900 362.043 C 300.818 361.539,302.256 360.427,302.000 360.419 C 301.890 360.416,301.215 360.788,300.500 361.246 M279.600 372.600 C 279.050 372.914,278.780 373.172,279.000 373.172 C 279.220 373.172,279.850 372.914,280.400 372.600 C 280.950 372.286,281.220 372.028,281.000 372.028 C 280.780 372.028,280.150 372.286,279.600 372.600 M270.400 376.600 C 269.850 376.914,269.580 377.172,269.800 377.172 C 270.020 377.172,270.650 376.914,271.200 376.600 C 271.750 376.286,272.020 376.028,271.800 376.028 C 271.580 376.028,270.950 376.286,270.400 376.600 M267.400 377.814 C 266.400 378.296,266.366 378.351,267.200 378.148 C 268.333 377.871,269.607 377.221,269.000 377.230 C 268.780 377.233,268.060 377.496,267.400 377.814 M251.000 383.200 C 250.496 383.417,250.422 383.544,250.800 383.544 C 251.130 383.544,251.760 383.389,252.200 383.200 C 252.704 382.983,252.778 382.856,252.400 382.856 C 252.070 382.856,251.440 383.011,251.000 383.200 M150.400 384.382 C 150.730 384.605,151.345 384.791,151.767 384.794 C 152.790 384.802,152.471 384.573,151.000 384.244 C 150.124 384.048,149.962 384.085,150.400 384.382 M246.600 384.400 C 246.096 384.617,246.022 384.744,246.400 384.744 C 246.730 384.744,247.360 384.589,247.800 384.400 C 248.304 384.183,248.378 384.056,248.000 384.056 C 247.670 384.056,247.040 384.211,246.600 384.400 M241.600 385.600 C 240.776 385.864,240.741 385.926,241.400 385.954 C 241.840 385.973,242.470 385.813,242.800 385.600 C 243.501 385.147,243.014 385.147,241.600 385.600 M156.800 386.000 C 158.168 386.438,159.219 386.438,158.200 386.000 C 157.760 385.811,157.040 385.662,156.600 385.668 C 155.957 385.677,155.996 385.743,156.800 386.000 M169.600 388.380 C 170.599 388.720,173.082 388.932,172.767 388.651 C 172.675 388.569,171.700 388.399,170.600 388.272 C 169.251 388.116,168.926 388.151,169.600 388.380 M225.700 388.676 C 226.085 388.776,226.715 388.776,227.100 388.676 C 227.485 388.575,227.170 388.493,226.400 388.493 C 225.630 388.493,225.315 388.575,225.700 388.676 M181.300 389.887 C 181.905 389.978,182.895 389.978,183.500 389.887 C 184.105 389.795,183.610 389.720,182.400 389.720 C 181.190 389.720,180.695 389.795,181.300 389.887 M214.500 389.887 C 215.105 389.978,216.095 389.978,216.700 389.887 C 217.305 389.795,216.810 389.720,215.600 389.720 C 214.390 389.720,213.895 389.795,214.500 389.887 M186.100 390.287 C 186.705 390.378,187.695 390.378,188.300 390.287 C 188.905 390.195,188.410 390.120,187.200 390.120 C 185.990 390.120,185.495 390.195,186.100 390.287 M209.700 390.287 C 210.305 390.378,211.295 390.378,211.900 390.287 C 212.505 390.195,212.010 390.120,210.800 390.120 C 209.590 390.120,209.095 390.195,209.700 390.287 " stroke="none" fill="#ed9494" fill-rule="evenodd"></path><path id="path4" d="M190.082 8.296 C 191.558 8.373,194.078 8.373,195.682 8.297 C 197.287 8.221,196.080 8.158,193.000 8.158 C 189.920 8.157,188.607 8.219,190.082 8.296 M201.900 8.297 C 203.495 8.373,206.105 8.373,207.700 8.297 C 209.295 8.221,207.990 8.159,204.800 8.159 C 201.610 8.159,200.305 8.221,201.900 8.297 M184.700 8.682 C 185.195 8.778,186.005 8.778,186.500 8.682 C 186.995 8.587,186.590 8.509,185.600 8.509 C 184.610 8.509,184.205 8.587,184.700 8.682 M211.905 8.683 C 212.402 8.779,213.122 8.775,213.505 8.675 C 213.887 8.575,213.480 8.496,212.600 8.501 C 211.720 8.505,211.407 8.587,211.905 8.683 M173.600 9.600 C 172.216 9.891,172.214 9.895,173.400 9.941 C 174.060 9.967,174.870 9.813,175.200 9.600 C 175.866 9.170,175.645 9.170,173.600 9.600 M223.000 9.581 C 223.768 9.929,225.910 10.156,225.567 9.853 C 225.475 9.772,224.680 9.596,223.800 9.462 C 222.685 9.293,222.442 9.329,223.000 9.581 M157.800 12.400 C 156.781 12.838,157.832 12.838,159.200 12.400 C 160.004 12.143,160.043 12.077,159.400 12.068 C 158.960 12.062,158.240 12.211,157.800 12.400 M324.000 54.525 C 324.000 54.594,324.585 55.179,325.300 55.825 L 326.600 57.000 325.425 55.700 C 324.330 54.488,324.000 54.216,324.000 54.525 M286.100 55.894 C 287.145 55.976,288.855 55.976,289.900 55.894 C 290.945 55.812,290.090 55.744,288.000 55.744 C 285.910 55.744,285.055 55.812,286.100 55.894 M70.706 57.411 C 69.884 58.175,69.354 58.800,69.527 58.800 C 69.701 58.800,70.454 58.170,71.200 57.400 C 72.941 55.603,72.643 55.610,70.706 57.411 M268.705 57.083 C 269.202 57.179,269.922 57.175,270.305 57.075 C 270.687 56.975,270.280 56.896,269.400 56.901 C 268.520 56.905,268.207 56.987,268.705 57.083 M305.300 57.076 C 305.685 57.176,306.315 57.176,306.700 57.076 C 307.085 56.975,306.770 56.893,306.000 56.893 C 305.230 56.893,304.915 56.975,305.300 57.076 M330.200 60.400 C 331.283 61.500,332.260 62.400,332.370 62.400 C 332.480 62.400,331.683 61.500,330.600 60.400 C 329.517 59.300,328.540 58.400,328.430 58.400 C 328.320 58.400,329.117 59.300,330.200 60.400 M63.791 64.100 L 60.600 67.400 63.900 64.209 C 66.965 61.246,67.382 60.800,67.091 60.800 C 67.030 60.800,65.545 62.285,63.791 64.100 M336.007 66.132 C 336.553 66.755,337.000 67.385,337.000 67.532 C 337.000 67.680,337.135 67.755,337.300 67.700 C 337.465 67.645,337.600 67.761,337.600 67.957 C 337.600 68.154,337.870 68.418,338.200 68.545 C 339.089 68.886,338.978 68.734,336.907 66.783 C 335.865 65.802,335.460 65.510,336.007 66.132 M221.700 68.812 C 220.361 69.351,220.611 69.624,222.000 69.140 C 222.660 68.910,223.200 68.649,223.200 68.561 C 223.200 68.324,222.713 68.405,221.700 68.812 M251.700 69.076 C 252.085 69.176,252.715 69.176,253.100 69.076 C 253.485 68.975,253.170 68.893,252.400 68.893 C 251.630 68.893,251.315 68.975,251.700 69.076 M244.400 69.600 C 243.033 69.888,243.028 69.895,244.200 69.919 C 244.860 69.933,245.760 69.789,246.200 69.600 C 247.162 69.187,246.364 69.187,244.400 69.600 M273.200 69.600 C 273.750 69.776,274.650 69.917,275.200 69.913 C 276.098 69.906,276.078 69.874,275.000 69.600 C 273.308 69.169,271.856 69.169,273.200 69.600 M56.975 71.300 L 55.800 72.600 57.100 71.425 C 58.312 70.330,58.584 70.000,58.275 70.000 C 58.206 70.000,57.621 70.585,56.975 71.300 M308.000 82.925 C 308.000 82.994,308.585 83.579,309.300 84.225 L 310.600 85.400 309.425 84.100 C 308.330 82.888,308.000 82.616,308.000 82.925 M168.028 95.174 C 167.204 95.696,167.113 96.808,167.919 96.499 C 168.363 96.329,168.406 96.202,168.059 96.086 C 167.707 95.969,167.773 95.756,168.279 95.372 C 169.088 94.758,168.909 94.617,168.028 95.174 M165.892 96.437 C 165.502 96.664,165.306 97.049,165.457 97.293 C 165.632 97.575,165.501 97.648,165.098 97.493 C 164.745 97.357,164.070 97.593,163.571 98.025 C 163.080 98.451,162.515 98.800,162.315 98.800 C 162.116 98.800,162.076 98.999,162.226 99.243 C 162.377 99.486,162.613 99.531,162.750 99.343 C 162.888 99.154,163.685 98.683,164.521 98.296 C 165.477 97.854,165.936 97.420,165.756 97.128 C 165.564 96.818,165.689 96.749,166.134 96.919 C 166.569 97.086,166.800 96.971,166.800 96.587 C 166.800 95.901,166.810 95.902,165.892 96.437 M362.428 101.100 C 362.489 101.753,363.146 102.967,363.172 102.476 C 363.187 102.188,363.393 102.072,363.630 102.218 C 363.866 102.364,363.822 102.105,363.533 101.642 C 363.020 100.819,362.372 100.502,362.428 101.100 M365.504 121.418 C 365.680 128.923,365.888 129.843,365.906 123.200 C 365.914 120.230,365.797 117.358,365.646 116.818 C 365.496 116.277,365.431 118.347,365.504 121.418 M326.893 122.000 C 326.893 122.770,326.975 123.085,327.076 122.700 C 327.176 122.315,327.176 121.685,327.076 121.300 C 326.975 120.915,326.893 121.230,326.893 122.000 M326.914 130.600 C 326.917 131.700,326.995 132.103,327.087 131.495 C 327.179 130.886,327.177 129.986,327.082 129.495 C 326.987 129.003,326.911 129.500,326.914 130.600 M131.970 141.100 C 136.862 141.174,139.936 141.381,140.270 141.658 C 140.606 141.937,140.800 141.950,140.800 141.692 C 140.800 140.917,139.497 140.800,131.867 140.891 L 124.200 140.982 131.970 141.100 M324.650 145.650 C 324.317 147.317,324.640 147.640,325.000 146.000 C 325.152 145.309,325.193 144.659,325.091 144.558 C 324.989 144.456,324.791 144.947,324.650 145.650 M362.846 146.467 C 362.821 146.834,362.696 147.464,362.570 147.867 C 362.352 148.562,362.363 148.563,362.797 147.887 C 363.048 147.496,363.173 146.866,363.073 146.487 C 362.911 145.868,362.888 145.866,362.846 146.467 M384.644 154.600 C 384.973 156.071,385.202 156.390,385.194 155.367 C 385.191 154.945,385.005 154.330,384.782 154.000 C 384.485 153.562,384.448 153.724,384.644 154.600 M10.854 165.867 C 10.825 166.344,10.696 167.064,10.570 167.467 C 10.352 168.161,10.364 168.162,10.796 167.488 C 11.047 167.097,11.175 166.377,11.081 165.888 C 10.909 165.001,10.909 165.001,10.854 165.867 M9.654 173.600 C 9.619 174.150,9.496 175.050,9.383 175.600 L 9.177 176.600 9.607 175.615 C 9.843 175.074,9.965 174.174,9.878 173.615 L 9.720 172.600 9.654 173.600 M388.909 178.800 C 388.909 179.790,388.987 180.195,389.082 179.700 C 389.178 179.205,389.178 178.395,389.082 177.900 C 388.987 177.405,388.909 177.810,388.909 178.800 M120.400 184.891 C 120.400 185.051,127.771 185.231,136.780 185.291 C 145.789 185.351,153.029 185.269,152.869 185.109 C 152.487 184.727,120.400 184.512,120.400 184.891 M8.514 186.600 C 8.517 187.700,8.595 188.103,8.687 187.495 C 8.779 186.886,8.777 185.986,8.682 185.495 C 8.587 185.003,8.511 185.500,8.514 186.600 M8.174 198.800 C 8.174 204.410,8.230 206.705,8.299 203.900 C 8.368 201.095,8.368 196.505,8.299 193.700 C 8.230 190.895,8.174 193.190,8.174 198.800 M389.709 190.400 C 389.709 191.390,389.787 191.795,389.882 191.300 C 389.978 190.805,389.978 189.995,389.882 189.500 C 389.787 189.005,389.709 189.410,389.709 190.400 M37.527 198.887 C 37.905 199.265,60.001 199.486,60.000 199.112 C 60.000 198.954,54.879 198.774,48.620 198.712 C 42.360 198.650,37.369 198.729,37.527 198.887 M130.324 198.699 C 133.473 198.767,138.513 198.767,141.524 198.699 C 144.536 198.631,141.960 198.576,135.800 198.576 C 129.640 198.576,127.176 198.632,130.324 198.699 M389.720 208.000 C 389.720 209.210,389.795 209.705,389.887 209.100 C 389.978 208.495,389.978 207.505,389.887 206.900 C 389.795 206.295,389.720 206.790,389.720 208.000 M8.514 211.400 C 8.517 212.500,8.595 212.903,8.687 212.295 C 8.779 211.686,8.777 210.786,8.682 210.295 C 8.587 209.803,8.511 210.300,8.514 211.400 M388.909 219.200 C 388.909 220.190,388.987 220.595,389.082 220.100 C 389.178 219.605,389.178 218.795,389.082 218.300 C 388.987 217.805,388.909 218.210,388.909 219.200 M9.473 223.200 C 9.604 224.190,9.776 225.075,9.856 225.167 C 10.157 225.514,9.928 222.964,9.590 222.200 C 9.353 221.666,9.314 221.998,9.473 223.200 M323.923 223.500 C 323.218 224.321,322.690 225.200,322.901 225.200 C 322.983 225.200,323.449 224.660,323.937 224.000 C 324.901 222.696,324.892 222.372,323.923 223.500 M387.422 229.422 C 387.272 230.225,387.228 230.962,387.326 231.060 C 387.424 231.157,387.627 230.581,387.778 229.778 C 387.928 228.975,387.972 228.238,387.874 228.140 C 387.776 228.043,387.573 228.619,387.422 229.422 M10.658 231.200 C 10.975 232.925,11.202 233.251,11.194 231.967 C 11.191 231.435,11.011 230.730,10.794 230.400 C 10.518 229.978,10.477 230.215,10.658 231.200 M386.249 236.215 C 386.112 236.573,386.015 237.166,386.034 237.533 C 386.053 237.900,386.227 237.669,386.421 237.020 C 386.798 235.758,386.665 235.133,386.249 236.215 M312.575 237.300 L 311.400 238.600 312.700 237.425 C 313.415 236.779,314.000 236.194,314.000 236.125 C 314.000 235.816,313.670 236.088,312.575 237.300 M260.778 242.700 L 259.400 244.200 260.900 242.822 C 262.296 241.538,262.584 241.200,262.278 241.200 C 262.212 241.200,261.537 241.875,260.778 242.700 M303.578 247.100 L 302.200 248.600 303.700 247.222 C 305.096 245.938,305.384 245.600,305.078 245.600 C 305.012 245.600,304.337 246.275,303.578 247.100 M296.147 254.807 C 294.578 256.343,293.413 257.600,293.558 257.600 C 293.703 257.600,295.072 256.340,296.600 254.800 C 298.128 253.260,299.293 252.003,299.189 252.007 C 299.085 252.010,297.716 253.270,296.147 254.807 M36.629 254.629 C 36.481 255.215,36.438 255.772,36.532 255.866 C 36.627 255.960,36.824 255.558,36.971 254.971 C 37.119 254.385,37.162 253.828,37.068 253.734 C 36.973 253.640,36.776 254.042,36.629 254.629 M288.786 261.900 L 286.600 264.200 288.900 262.014 C 291.037 259.982,291.383 259.600,291.086 259.600 C 291.024 259.600,289.989 260.635,288.786 261.900 M35.400 261.200 C 35.248 261.891,35.207 262.541,35.309 262.642 C 35.411 262.744,35.609 262.253,35.750 261.550 C 36.083 259.883,35.760 259.560,35.400 261.200 M92.158 266.600 C 92.158 269.680,92.221 270.887,92.297 269.282 C 92.373 267.678,92.373 265.158,92.296 263.682 C 92.219 262.207,92.157 263.520,92.158 266.600 M277.375 272.100 L 276.200 273.400 277.500 272.225 C 278.215 271.579,278.800 270.994,278.800 270.925 C 278.800 270.616,278.470 270.888,277.375 272.100 M34.153 277.000 C 34.153 279.640,34.218 280.668,34.297 279.284 C 34.375 277.901,34.374 275.741,34.295 274.484 C 34.216 273.228,34.152 274.360,34.153 277.000 M100.800 292.600 C 101.995 293.810,103.063 294.800,103.173 294.800 C 103.283 294.800,102.395 293.810,101.200 292.600 C 100.005 291.390,98.937 290.400,98.827 290.400 C 98.717 290.400,99.605 291.390,100.800 292.600 M36.456 296.400 C 36.456 296.730,36.611 297.360,36.800 297.800 C 37.017 298.304,37.144 298.378,37.144 298.000 C 37.144 297.670,36.989 297.040,36.800 296.600 C 36.583 296.096,36.456 296.022,36.456 296.400 M170.100 296.812 C 168.761 297.351,169.011 297.624,170.400 297.140 C 171.060 296.910,171.600 296.649,171.600 296.561 C 171.600 296.324,171.113 296.405,170.100 296.812 M154.800 301.206 C 154.378 301.482,154.615 301.523,155.600 301.342 C 157.325 301.025,157.651 300.798,156.367 300.806 C 155.835 300.809,155.130 300.989,154.800 301.206 M148.400 302.395 C 147.991 302.655,148.310 302.699,149.400 302.532 C 151.377 302.229,151.714 301.998,150.167 302.006 C 149.525 302.009,148.730 302.184,148.400 302.395 M129.300 303.491 C 130.125 303.578,131.475 303.578,132.300 303.491 C 133.125 303.405,132.450 303.334,130.800 303.334 C 129.150 303.334,128.475 303.405,129.300 303.491 M136.691 303.489 C 137.401 303.577,138.661 303.579,139.491 303.492 C 140.321 303.405,139.740 303.333,138.200 303.331 C 136.660 303.329,135.981 303.400,136.691 303.489 M334.189 334.100 L 331.400 337.000 334.300 334.211 C 336.994 331.620,337.383 331.200,337.089 331.200 C 337.028 331.200,335.723 332.505,334.189 334.100 M67.200 337.400 C 68.617 338.830,69.867 340.000,69.977 340.000 C 70.087 340.000,69.017 338.830,67.600 337.400 C 66.183 335.970,64.933 334.800,64.823 334.800 C 64.713 334.800,65.783 335.970,67.200 337.400 M140.800 341.600 C 139.976 341.864,139.941 341.926,140.600 341.954 C 141.040 341.973,141.670 341.813,142.000 341.600 C 142.701 341.147,142.214 341.147,140.800 341.600 M132.305 343.083 C 132.802 343.179,133.522 343.175,133.905 343.075 C 134.287 342.975,133.880 342.896,133.000 342.901 C 132.120 342.905,131.807 342.987,132.305 343.083 M323.294 344.012 C 322.575 344.665,322.137 345.200,322.319 345.200 C 322.501 345.200,323.168 344.660,323.800 344.000 C 325.270 342.465,324.986 342.472,323.294 344.012 M101.100 344.289 C 101.815 344.378,102.985 344.378,103.700 344.289 C 104.415 344.201,103.830 344.128,102.400 344.128 C 100.970 344.128,100.385 344.201,101.100 344.289 M119.900 344.289 C 120.615 344.378,121.785 344.378,122.500 344.289 C 123.215 344.201,122.630 344.128,121.200 344.128 C 119.770 344.128,119.185 344.201,119.900 344.289 M108.300 344.698 C 110.115 344.772,113.085 344.772,114.900 344.698 C 116.715 344.623,115.230 344.563,111.600 344.563 C 107.970 344.563,106.485 344.623,108.300 344.698 M154.433 384.944 C 154.525 385.023,155.140 385.208,155.800 385.356 C 156.676 385.552,156.838 385.515,156.400 385.218 C 155.860 384.853,154.032 384.598,154.433 384.944 M159.633 386.144 C 159.725 386.223,160.340 386.408,161.000 386.556 C 161.876 386.752,162.038 386.715,161.600 386.418 C 161.060 386.053,159.232 385.798,159.633 386.144 M236.400 386.406 C 235.978 386.682,236.215 386.723,237.200 386.542 C 238.925 386.225,239.251 385.998,237.967 386.006 C 237.435 386.009,236.730 386.189,236.400 386.406 M167.200 387.600 C 167.750 387.776,168.560 387.920,169.000 387.920 C 169.633 387.920,169.592 387.854,168.800 387.600 C 168.250 387.424,167.440 387.280,167.000 387.280 C 166.367 387.280,166.408 387.346,167.200 387.600 M229.800 387.600 C 228.781 388.038,229.832 388.038,231.200 387.600 C 232.004 387.343,232.043 387.277,231.400 387.268 C 230.960 387.262,230.240 387.411,229.800 387.600 M177.500 389.082 C 177.995 389.178,178.805 389.178,179.300 389.082 C 179.795 388.987,179.390 388.909,178.400 388.909 C 177.410 388.909,177.005 388.987,177.500 389.082 M218.700 389.082 C 219.195 389.178,220.005 389.178,220.500 389.082 C 220.995 388.987,220.590 388.909,219.600 388.909 C 218.610 388.909,218.205 388.987,218.700 389.082 M187.500 389.882 C 187.995 389.978,188.805 389.978,189.300 389.882 C 189.795 389.787,189.390 389.709,188.400 389.709 C 187.410 389.709,187.005 389.787,187.500 389.882 M209.105 389.883 C 209.602 389.979,210.322 389.975,210.705 389.875 C 211.087 389.775,210.680 389.696,209.800 389.701 C 208.920 389.705,208.607 389.787,209.105 389.883 M196.118 390.298 C 197.833 390.373,200.533 390.372,202.118 390.297 C 203.703 390.221,202.300 390.159,199.000 390.160 C 195.700 390.161,194.403 390.222,196.118 390.298 " stroke="none" fill="#df474c" fill-rule="evenodd"></path></g></svg>